<svg xmlns="http://www.w3.org/2000/svg" xmlns:xlink="http://www.w3.org/1999/xlink" width="637" height="208" viewBox="0 0 637 208">
  <defs>
    <clipPath id="clip-path">
      <rect id="Rectangle_114" data-name="Rectangle 114" width="637" height="208" transform="translate(478 887)" fill="#fff"/>
    </clipPath>
    <clipPath id="clip-path-2">
      <rect id="Rectangle_113" data-name="Rectangle 113" width="633" height="227" transform="translate(-203)" fill="#002866"/>
    </clipPath>
  </defs>
  <g id="bogo-fr" transform="translate(-478 -887)" clip-path="url(#clip-path)">
    <g id="bogo-fr-2" data-name="bogo-fr" transform="translate(478 877)">
      <g id="Слой_2" data-name="Слой 2">
        <g id="Layer_1" data-name="Layer 1">
          <rect id="Rectangle_112" data-name="Rectangle 112" width="637" height="227" fill="#3bb4a4"/>
          <g id="Group_282" data-name="Group 282" transform="translate(205)" clip-path="url(#clip-path-2)">
            <g id="Group_279" data-name="Group 279" transform="translate(46.038 47.796)" opacity="0.15">
              <path id="Path_212" data-name="Path 212" d="M293.637,219.514,198.674,60.061l-1.593,4.431c-.088-.108-4.5-2.269-4.591-2.369-2.232-2.4-7.534-1.44-12.741-1.44l-1.5,31.7S169.655,61.26,167.461,62.5a9.172,9.172,0,0,0-2.176,1.7c-2.21,2.357.005-.27,0,4.406-5.523-6.36-12.211-4.119-12.211-4.119-.151-.165-7.8,27.891-7.8,27.891l-7-32.322-2.868.622c-3.6,0-.055.611-2.212,1.833-.955.538-10.373,1.174-11.064,1.976-2.083,2.42,1.081,7.413.974,11.907l-4.871,15.162a5.561,5.561,0,0,0-1.34,0L109.824,60s-3.249,3.766-5.477,4.231-3.986-2.944-6.181-1.7a9.061,9.061,0,0,0-2.184,1.7c-2.216,2.372-6.38,19.075-6.375,23.78l-1.331,3.548L79.13,68.611c-1.282-1.509-4.238-6.348-6.264-6.874-2.6-.632.779-.529-1.91-.479H58.41L47.393,80.031l13.114,24.419L47.393,118.469l80.04,110.338c9.564,0,64.078,2.185,64.205-6.185l2.411-6.982.231.259q3.324,3.593,11.079,3.593h0q7.827,0,11.159-3.593c2.221-2.4,6.8,7.609,6.818,2.975L229,215.956q3.061,3.593,9.859,3.558h0a8.449,8.449,0,0,0,6.671-2.616l1.7,1.976,17.223,3.747Z" transform="translate(-58.579 -45.275)" fill="#002866"/>
            </g>
            <g id="Group_280" data-name="Group 280" transform="translate(47.228 125.134)" opacity="0.15">
              <path id="Path_213" data-name="Path 213" d="M251.758,252.744l-53.8-87.422H176.965l-4.528,21.406L157,165.322l-14.433-5.852-10.884,27.259-16.26-21.406-12.9-5.845L86.135,181.8,72.518,161.748l-3.776-.623c-2-2.58,2.515-.005-2.314,0H62.867l4.657-.717c-3.862,0-.222-.86-2.766.717a12.754,12.754,0,0,0-1.892,1.419c-2.774,2.522-4.234.008-4.234,4.685-.073,2.818-1.353,9.1,0,11.57.472.823-1.308,5.216-.731,5.968l19.2,18.18c.05,1.05,4.259-5.413,3.609-4.587L62.867,183.785l-13,9.019,56.684,75.444H251.758Z" transform="translate(-58.65 -158.76)" fill="#002866"/>
            </g>
            <path id="Path_226" data-name="Path 226" d="M-54.74-16.652a7.637,7.637,0,0,1,4.531,2.829A7.972,7.972,0,0,1-48.53-8.832a7.94,7.94,0,0,1-2.852,6.486Q-54.234,0-59.386,0H-75.44V-32.43h15.548q4.968,0,7.8,2.208a7.425,7.425,0,0,1,2.829,6.21,7.486,7.486,0,0,1-1.495,4.761A7.426,7.426,0,0,1-54.74-16.652Zm-11.684-2.9h4.554q3.4,0,3.4-2.806,0-2.9-3.4-2.9h-4.554ZM-61.18-7.268q3.4,0,3.4-2.852a2.829,2.829,0,0,0-.9-2.254,3.766,3.766,0,0,0-2.553-.782h-5.2v5.888ZM-23.046.322a16.838,16.838,0,0,1-8.372-2.139,15.94,15.94,0,0,1-6.049-5.934A16.608,16.608,0,0,1-39.7-16.33a16.608,16.608,0,0,1,2.231-8.579,15.771,15.771,0,0,1,6.049-5.911,16.982,16.982,0,0,1,8.372-2.116,16.944,16.944,0,0,1,8.395,2.116,15.652,15.652,0,0,1,6,5.911A16.743,16.743,0,0,1-6.44-16.33,16.743,16.743,0,0,1-8.648-7.751a15.773,15.773,0,0,1-6.026,5.934A16.838,16.838,0,0,1-23.046.322Zm0-8.372A6.918,6.918,0,0,0-17.595-10.3a8.744,8.744,0,0,0,2-6.026,8.8,8.8,0,0,0-2-6.095,6.953,6.953,0,0,0-5.451-2.231,6.937,6.937,0,0,0-5.474,2.231A8.861,8.861,0,0,0-30.5-16.33a8.791,8.791,0,0,0,1.978,6.049A6.937,6.937,0,0,0-23.046-8.05ZM24.288-21.758a5.22,5.22,0,0,0-2.139-1.978,6.969,6.969,0,0,0-3.2-.69,6.79,6.79,0,0,0-5.359,2.208,8.627,8.627,0,0,0-1.955,5.934q0,4.186,2.093,6.371a8.051,8.051,0,0,0,6.1,2.185,6.952,6.952,0,0,0,6.762-4.278H17.526v-6.486H34.362v8.74a16.5,16.5,0,0,1-3.105,4.83,15.916,15.916,0,0,1-5.175,3.7A16.779,16.779,0,0,1,18.952.23a17.4,17.4,0,0,1-8.625-2.093,14.557,14.557,0,0,1-5.8-5.842,17.611,17.611,0,0,1-2.047-8.579,17.514,17.514,0,0,1,2.047-8.533A14.6,14.6,0,0,1,10.3-30.659a17.265,17.265,0,0,1,8.6-2.093,16.627,16.627,0,0,1,10.12,2.944,12.493,12.493,0,0,1,4.968,8.05ZM59.938.322a16.838,16.838,0,0,1-8.372-2.139,15.94,15.94,0,0,1-6.049-5.934,16.608,16.608,0,0,1-2.231-8.579,16.608,16.608,0,0,1,2.231-8.579,15.771,15.771,0,0,1,6.049-5.911,16.982,16.982,0,0,1,8.372-2.116,16.944,16.944,0,0,1,8.395,2.116,15.652,15.652,0,0,1,6,5.911,16.743,16.743,0,0,1,2.208,8.579,16.743,16.743,0,0,1-2.208,8.579A15.773,15.773,0,0,1,68.31-1.817,16.838,16.838,0,0,1,59.938.322Zm0-8.372A6.918,6.918,0,0,0,65.389-10.3a8.744,8.744,0,0,0,2-6.026,8.8,8.8,0,0,0-2-6.095,6.953,6.953,0,0,0-5.451-2.231,6.937,6.937,0,0,0-5.474,2.231,8.861,8.861,0,0,0-1.978,6.095,8.791,8.791,0,0,0,1.978,6.049A6.937,6.937,0,0,0,59.938-8.05Z" transform="translate(115 159)" fill="#fff"/>
            <path id="Path_227" data-name="Path 227" d="M-59.11.322a16.838,16.838,0,0,1-8.372-2.139,15.94,15.94,0,0,1-6.049-5.934,16.608,16.608,0,0,1-2.231-8.579,16.608,16.608,0,0,1,2.231-8.579,15.771,15.771,0,0,1,6.049-5.911,16.982,16.982,0,0,1,8.372-2.116,16.944,16.944,0,0,1,8.395,2.116,15.652,15.652,0,0,1,6,5.911A16.743,16.743,0,0,1-42.5-16.33a16.743,16.743,0,0,1-2.208,8.579,15.773,15.773,0,0,1-6.026,5.934A16.838,16.838,0,0,1-59.11.322Zm0-8.372A6.918,6.918,0,0,0-53.659-10.3a8.744,8.744,0,0,0,2-6.026,8.8,8.8,0,0,0-2-6.095,6.953,6.953,0,0,0-5.451-2.231,6.937,6.937,0,0,0-5.474,2.231,8.861,8.861,0,0,0-1.978,6.095,8.791,8.791,0,0,0,1.978,6.049A6.937,6.937,0,0,0-59.11-8.05Zm45.4-24.38v7.176H-26.68v5.7h9.568V-12.7H-26.68V0H-35.7V-32.43Zm28.566,0v7.176H1.886v5.7h9.568V-12.7H1.886V0H-7.13V-32.43ZM37.858,0l-6.44-11.96h-.966V0H21.436V-32.43H35.65a14.7,14.7,0,0,1,6.624,1.357,9.506,9.506,0,0,1,4.094,3.726,10.36,10.36,0,0,1,1.38,5.313,9.655,9.655,0,0,1-1.817,5.819,9.819,9.819,0,0,1-5.313,3.565L47.932,0ZM30.452-18.124h4.462A3.872,3.872,0,0,0,37.674-19a3.325,3.325,0,0,0,.92-2.53,3.235,3.235,0,0,0-.943-2.461,3.823,3.823,0,0,0-2.737-.9H30.452Zm33.166-7.084v5.29h10.35v6.854H63.618v5.842h11.73V0H54.6V-32.43H75.348v7.222Z" transform="translate(110 95)" fill="#fff"/>
          </g>
          <path id="Path_222" data-name="Path 222" d="M40.1,127.43H200.742l-6.928,10.727,6.928,10.719H40.1l6.928-10.719Z" transform="translate(197.9 -26.99)" fill="#fff"/>
        </g>
      </g>
    </g>
    <path id="Path_231" data-name="Path 231" d="M2.76-8.424v5.04A1.668,1.668,0,0,0,3.132-2.22a1.4,1.4,0,0,0,1.092.408,1.443,1.443,0,0,0,1.1-.408,1.634,1.634,0,0,0,.384-1.164v-5.04H7.764V-3.4a3.575,3.575,0,0,1-.48,1.908A3.074,3.074,0,0,1,5.994-.312a4.057,4.057,0,0,1-1.806.4,3.956,3.956,0,0,1-1.782-.39A2.907,2.907,0,0,1,1.164-1.482,3.756,3.756,0,0,1,.708-3.4V-8.424ZM16.908,0H14.856L11.424-5.2V0H9.372V-8.424h2.052L14.856-3.2v-5.22h2.052ZM26.52-1.488H23.376L22.872,0H20.724l3.048-8.424h2.376L29.2,0H27.024Zm-.528-1.584L24.948-6.156,23.916-3.072ZM29.94-4.224a4.528,4.528,0,0,1,.54-2.226,3.859,3.859,0,0,1,1.506-1.524,4.372,4.372,0,0,1,2.19-.546,4.19,4.19,0,0,1,2.568.792,3.8,3.8,0,0,1,1.428,2.16H35.916a1.822,1.822,0,0,0-.714-.8,2.008,2.008,0,0,0-1.05-.276,1.96,1.96,0,0,0-1.536.66,2.554,2.554,0,0,0-.588,1.764,2.554,2.554,0,0,0,.588,1.764,1.96,1.96,0,0,0,1.536.66,2.008,2.008,0,0,0,1.05-.276,1.822,1.822,0,0,0,.714-.8h2.256A3.776,3.776,0,0,1,36.744-.726,4.212,4.212,0,0,1,34.176.06a4.372,4.372,0,0,1-2.19-.546A3.87,3.87,0,0,1,30.48-2,4.494,4.494,0,0,1,29.94-4.224ZM46.9-8.424V0H44.844V-3.468H41.652V0H39.6V-8.424h2.052v3.3h3.192v-3.3Zm3.7,1.644v1.7H53.34v1.584H50.592v1.848H53.7V0H48.54V-8.424H53.7V-6.78ZM61.26-8.424V-6.78H59.028V0H56.976V-6.78H54.744V-8.424ZM64.512-6.78v1.7H67.26v1.584H64.512v1.848H67.62V0H62.46V-8.424h5.16V-6.78Zm1.872-3.336L63.492-8.9V-10.32l2.892-1.392Zm7.464,1.692v5.04A1.668,1.668,0,0,0,74.22-2.22a1.4,1.4,0,0,0,1.092.408,1.443,1.443,0,0,0,1.1-.408A1.634,1.634,0,0,0,76.8-3.384v-5.04h2.052V-3.4a3.575,3.575,0,0,1-.48,1.908,3.074,3.074,0,0,1-1.29,1.176,4.057,4.057,0,0,1-1.806.4,3.956,3.956,0,0,1-1.782-.39,2.907,2.907,0,0,1-1.242-1.176A3.756,3.756,0,0,1,71.8-3.4V-8.424ZM88,0H85.944L82.512-5.2V0H80.46V-8.424h2.052L85.944-3.2v-5.22H88Zm8.352.084A4.4,4.4,0,0,1,94.17-.468,4.126,4.126,0,0,1,92.6-2.01a4.31,4.31,0,0,1-.582-2.226,4.278,4.278,0,0,1,.582-2.22A4.139,4.139,0,0,1,94.17-7.992a4.4,4.4,0,0,1,2.178-.552,4.4,4.4,0,0,1,2.178.552,4.053,4.053,0,0,1,1.56,1.536,4.348,4.348,0,0,1,.57,2.22,4.344,4.344,0,0,1-.576,2.226A4.1,4.1,0,0,1,98.52-.468,4.363,4.363,0,0,1,96.348.084Zm0-1.872a2.067,2.067,0,0,0,1.614-.672,2.551,2.551,0,0,0,.606-1.776,2.546,2.546,0,0,0-.606-1.782,2.076,2.076,0,0,0-1.614-.666,2.1,2.1,0,0,0-1.626.66,2.542,2.542,0,0,0-.606,1.788,2.546,2.546,0,0,0,.606,1.782A2.091,2.091,0,0,0,96.348-1.788Zm11.1-6.636V-6.78h-3.432V-5h2.568v1.6h-2.568V0h-2.052V-8.424Zm6.732,0V-6.78h-3.432V-5h2.568v1.6h-2.568V0H108.7V-8.424Zm3.3,1.644v1.7h2.748v1.584H117.48v1.848h3.108V0h-5.16V-8.424h5.16V-6.78Zm8.9,6.78-1.752-3.18h-.492V0h-2.052V-8.424h3.444a3.791,3.791,0,0,1,1.7.348,2.4,2.4,0,0,1,1.05.954,2.662,2.662,0,0,1,.348,1.35,2.507,2.507,0,0,1-.474,1.5,2.551,2.551,0,0,1-1.4.936L128.7,0ZM124.14-4.632h1.272a1.164,1.164,0,0,0,.846-.276,1.042,1.042,0,0,0,.282-.78,1.009,1.009,0,0,0-.282-.756,1.164,1.164,0,0,0-.846-.276H124.14Zm12-3.792V-6.78h-2.232V0h-2.052V-6.78h-2.232V-8.424Z" transform="translate(729 992)" fill="#3bb4a4"/>
  </g>
</svg>
