<svg xmlns="http://www.w3.org/2000/svg" xmlns:xlink="http://www.w3.org/1999/xlink" width="637" height="208" viewBox="0 0 637 208">
  <defs>
    <clipPath id="clip-path">
      <rect id="Rectangle_116" data-name="Rectangle 116" width="637" height="208" transform="translate(478 887)" fill="#fff"/>
    </clipPath>
  </defs>
  <g id="bogo-en" transform="translate(-478 -887)" clip-path="url(#clip-path)">
    <g id="bogo-fr" transform="translate(478 877)">
      <g id="Слой_2" data-name="Слой 2">
        <g id="Layer_1" data-name="Layer 1">
          <rect id="Rectangle_115" data-name="Rectangle 115" width="637" height="227" fill="#3bb4a4"/>
          <g id="Group_285" data-name="Group 285" transform="translate(205)">
            <g id="Group_283" data-name="Group 283" transform="translate(46.038 47.796)" opacity="0.15">
              <path id="Path_223" data-name="Path 223" d="M304.46,218.874S192.586,62.224,192.49,62.123c-2.232-2.4-19.822,7.179-25.029,7.179L178.25,92.383s-3.244-29.42-5.438-28.179a28.219,28.219,0,0,0-4.014,2.689c-2.21,2.357-2.408,13.138-2.408,13.138L155.419,64.2c-.151-.165-4.014,2.689-4.014,2.689V61.258l-16-.575c-3.6,0-.055.611-2.212,1.833-.955.538-1.436,7.054-2.126,7.856-2.083,2.42,4.445,7.814,4.338,12.309h-5.944c-.088-.108-12.041-18.476-12.041-18.476l-7.6-4.2s-3.249,3.766-5.477,4.231-3.986-2.944-6.181-1.7a9.061,9.061,0,0,0-2.184,1.7c-2.216,2.372-1.309,13.742-1.3,18.447l-3.746,1.605L80.23,64.492c-1.282-1.509-5.338-2.23-7.364-2.755-2.6-.632.779-.529-1.91-.479H58.41l-3.332,28.38,10.7,14.182-18.388,14.65,80.04,110.338c9.564,0,64.078,2.185,64.205-6.185l2.411-6.982.231.259q3.324,3.593,11.079,3.593h0q7.827,0,11.159-3.593c2.221-2.4,6.8,7.609,6.818,2.975L229,215.956q3.061,3.593,9.859,3.558h0a8.449,8.449,0,0,0,6.671-2.616l1.7,1.976,17.223,3.747Z" transform="translate(-58.579 -45.275)" fill="#002866"/>
            </g>
            <g id="Group_284" data-name="Group 284" transform="translate(47.228 125.134)" opacity="0.15">
              <path id="Path_224" data-name="Path 224" d="M245.812,252.349l-65.289-91.941-8.562,32.4-20.871-32.4-8.523-.938-8.869,25.3-13.379-24.358-17.393,2.136L99.715,192.8,85.8,165.322l-13.284-3.574-3.776-.623c-2-2.58,2.515-.005-2.314,0H62.867l4.657-.717c-3.862,0-.222-.86-2.766.717a12.754,12.754,0,0,0-1.892,1.419c-2.774,2.522-3.228,21.738,5.875,29.065.05,1.05,8.344.37,7.694,1.2l-13.569-9.019L60.649,192.8l50.84,71.05,140.269,4.394Z" transform="translate(-58.65 -158.76)" fill="#002866"/>
            </g>
            <path id="Path_229" data-name="Path 229" d="M-51.727-32.43a18.746,18.746,0,0,1,8.947,2.047,14.382,14.382,0,0,1,5.911,5.727,16.873,16.873,0,0,1,2.07,8.418,16.633,16.633,0,0,1-2.093,8.372,14.837,14.837,0,0,1-5.934,5.773A18.31,18.31,0,0,1-51.727,0H-64.561V-32.43Zm-.69,24.472a8.6,8.6,0,0,0,6.21-2.162,8.079,8.079,0,0,0,2.254-6.118,8.219,8.219,0,0,0-2.254-6.187,8.546,8.546,0,0,0-6.21-2.185h-3.128V-7.958Zm36.662-17.25v5.29H-5.4v6.854h-10.35v5.842h11.73V0H-24.771V-32.43H-4.025v7.222ZM26.933-5.29h-11.5L13.685,0H4.209L16.031-32.43h10.4L38.2,0H28.681Zm-2.254-6.9-3.5-10.488L17.733-12.19ZM56.143-6.9H66.217V0H47.127V-32.43h9.016Z" transform="translate(113 159)" fill="#fff"/>
            <path id="Path_228" data-name="Path 228" d="M-49.91-16.652a7.637,7.637,0,0,1,4.531,2.829A7.972,7.972,0,0,1-43.7-8.832a7.94,7.94,0,0,1-2.852,6.486Q-49.4,0-54.556,0H-70.61V-32.43h15.548q4.968,0,7.8,2.208a7.425,7.425,0,0,1,2.829,6.21,7.486,7.486,0,0,1-1.495,4.761A7.426,7.426,0,0,1-49.91-16.652Zm-11.684-2.9h4.554q3.4,0,3.4-2.806,0-2.9-3.4-2.9h-4.554ZM-56.35-7.268q3.4,0,3.4-2.852a2.829,2.829,0,0,0-.9-2.254,3.766,3.766,0,0,0-2.553-.782h-5.2v5.888ZM-21.436.322a16.838,16.838,0,0,1-8.372-2.139,15.94,15.94,0,0,1-6.049-5.934,16.608,16.608,0,0,1-2.231-8.579,16.608,16.608,0,0,1,2.231-8.579,15.771,15.771,0,0,1,6.049-5.911,16.982,16.982,0,0,1,8.372-2.116,16.944,16.944,0,0,1,8.395,2.116,15.652,15.652,0,0,1,6,5.911A16.743,16.743,0,0,1-4.83-16.33,16.743,16.743,0,0,1-7.038-7.751a15.773,15.773,0,0,1-6.026,5.934A16.838,16.838,0,0,1-21.436.322Zm0-8.372A6.918,6.918,0,0,0-15.985-10.3a8.744,8.744,0,0,0,2-6.026,8.8,8.8,0,0,0-2-6.095,6.953,6.953,0,0,0-5.451-2.231,6.937,6.937,0,0,0-5.474,2.231,8.861,8.861,0,0,0-1.978,6.095,8.791,8.791,0,0,0,1.978,6.049A6.937,6.937,0,0,0-21.436-8.05ZM22.678-21.758a5.22,5.22,0,0,0-2.139-1.978,6.969,6.969,0,0,0-3.2-.69,6.79,6.79,0,0,0-5.359,2.208,8.627,8.627,0,0,0-1.955,5.934q0,4.186,2.093,6.371a8.051,8.051,0,0,0,6.1,2.185,6.952,6.952,0,0,0,6.762-4.278H15.916v-6.486H32.752v8.74a16.5,16.5,0,0,1-3.105,4.83,15.916,15.916,0,0,1-5.175,3.7A16.779,16.779,0,0,1,17.342.23,17.4,17.4,0,0,1,8.717-1.863a14.557,14.557,0,0,1-5.8-5.842A17.611,17.611,0,0,1,.874-16.284a17.514,17.514,0,0,1,2.047-8.533,14.6,14.6,0,0,1,5.773-5.842,17.265,17.265,0,0,1,8.6-2.093,16.627,16.627,0,0,1,10.12,2.944,12.493,12.493,0,0,1,4.968,8.05ZM55.108.322a16.838,16.838,0,0,1-8.372-2.139,15.94,15.94,0,0,1-6.049-5.934,16.608,16.608,0,0,1-2.231-8.579,16.608,16.608,0,0,1,2.231-8.579,15.771,15.771,0,0,1,6.049-5.911,16.982,16.982,0,0,1,8.372-2.116A16.944,16.944,0,0,1,63.5-30.82a15.652,15.652,0,0,1,6,5.911,16.743,16.743,0,0,1,2.208,8.579,16.743,16.743,0,0,1-2.208,8.579A15.773,15.773,0,0,1,63.48-1.817,16.838,16.838,0,0,1,55.108.322Zm0-8.372A6.918,6.918,0,0,0,60.559-10.3a8.744,8.744,0,0,0,2-6.026,8.8,8.8,0,0,0-2-6.095,6.953,6.953,0,0,0-5.451-2.231,6.937,6.937,0,0,0-5.474,2.231,8.861,8.861,0,0,0-1.978,6.095,8.791,8.791,0,0,0,1.978,6.049A6.937,6.937,0,0,0,55.108-8.05Z" transform="translate(113 93)" fill="#fff"/>
            <path id="Path_225" data-name="Path 225" d="M40.1,127.43H200.742l-6.928,10.727,6.928,10.719H40.1l6.928-10.719Z" transform="translate(-7.1 -26.99)" fill="#fff"/>
            <path id="Path_230" data-name="Path 230" d="M-51.87-4.32a1.959,1.959,0,0,1,1.176.726,2.061,2.061,0,0,1,.444,1.3,2.069,2.069,0,0,1-.738,1.674A3.113,3.113,0,0,1-53.046,0H-56.97V-8.424h3.792a3.109,3.109,0,0,1,2.01.588,1.945,1.945,0,0,1,.726,1.6A1.928,1.928,0,0,1-50.832-5,2.017,2.017,0,0,1-51.87-4.32Zm-3.048-.7h1.344a1.19,1.19,0,0,0,.774-.222.8.8,0,0,0,.27-.654.816.816,0,0,0-.27-.66,1.168,1.168,0,0,0-.774-.228h-1.344Zm1.512,3.36a1.217,1.217,0,0,0,.8-.234.831.831,0,0,0,.282-.678.868.868,0,0,0-.294-.7,1.2,1.2,0,0,0-.81-.252h-1.488v1.86Zm7.128-6.768v5.04a1.668,1.668,0,0,0,.372,1.164,1.4,1.4,0,0,0,1.092.408,1.443,1.443,0,0,0,1.1-.408,1.634,1.634,0,0,0,.384-1.164v-5.04h2.052V-3.4a3.575,3.575,0,0,1-.48,1.908,3.074,3.074,0,0,1-1.29,1.176,4.057,4.057,0,0,1-1.806.4,3.956,3.956,0,0,1-1.782-.39,2.907,2.907,0,0,1-1.242-1.176A3.756,3.756,0,0,1-48.33-3.4V-8.424Zm14.436,0-2.916,5.64V0H-36.81V-2.784l-2.916-5.64H-37.4L-35.766-4.9l1.62-3.528ZM-22.95.084a4.4,4.4,0,0,1-2.178-.552A4.126,4.126,0,0,1-26.7-2.01a4.31,4.31,0,0,1-.582-2.226,4.278,4.278,0,0,1,.582-2.22,4.139,4.139,0,0,1,1.572-1.536,4.4,4.4,0,0,1,2.178-.552,4.4,4.4,0,0,1,2.178.552,4.053,4.053,0,0,1,1.56,1.536,4.347,4.347,0,0,1,.57,2.22,4.344,4.344,0,0,1-.576,2.226,4.1,4.1,0,0,1-1.56,1.542A4.363,4.363,0,0,1-22.95.084Zm0-1.872a2.067,2.067,0,0,0,1.614-.672,2.551,2.551,0,0,0,.606-1.776,2.546,2.546,0,0,0-.606-1.782,2.076,2.076,0,0,0-1.614-.666,2.1,2.1,0,0,0-1.626.66,2.542,2.542,0,0,0-.606,1.788,2.546,2.546,0,0,0,.606,1.782A2.091,2.091,0,0,0-22.95-1.788ZM-9.2,0H-11.25l-3.432-5.2V0h-2.052V-8.424h2.052L-11.25-3.2v-5.22H-9.2ZM-4.89-6.78v1.7h2.748v1.584H-4.89v1.848h3.108V0h-5.16V-8.424h5.16V-6.78ZM9.222-5.76A1.535,1.535,0,0,0,8.568-6.4a2.14,2.14,0,0,0-1-.222,2.062,2.062,0,0,0-1.6.654,2.482,2.482,0,0,0-.6,1.746A2.512,2.512,0,0,0,6-2.406a2.3,2.3,0,0,0,1.734.654,2.1,2.1,0,0,0,1.278-.384,2.176,2.176,0,0,0,.762-1.1H7.17V-4.752h4.464v1.908a4.025,4.025,0,0,1-.774,1.428A4.084,4.084,0,0,1,9.474-.348a4.284,4.284,0,0,1-1.9.408A4.488,4.488,0,0,1,5.352-.486,3.889,3.889,0,0,1,3.828-2a4.454,4.454,0,0,1-.546-2.22A4.488,4.488,0,0,1,3.828-6.45,3.889,3.889,0,0,1,5.346-7.974a4.454,4.454,0,0,1,2.22-.546,4.313,4.313,0,0,1,2.55.732A3.454,3.454,0,0,1,11.49-5.76Zm6.372-1.02v1.7h2.748v1.584H15.594v1.848H18.7V0h-5.16V-8.424H18.7V-6.78ZM26.862-8.424V-6.78H24.63V0H22.578V-6.78H20.346V-8.424Zm9.1,8.508A4.4,4.4,0,0,1,33.78-.468,4.126,4.126,0,0,1,32.208-2.01a4.31,4.31,0,0,1-.582-2.226,4.278,4.278,0,0,1,.582-2.22A4.139,4.139,0,0,1,33.78-7.992a4.4,4.4,0,0,1,2.178-.552,4.4,4.4,0,0,1,2.178.552A4.053,4.053,0,0,1,39.7-6.456a4.347,4.347,0,0,1,.57,2.22A4.344,4.344,0,0,1,39.69-2.01,4.1,4.1,0,0,1,38.13-.468,4.363,4.363,0,0,1,35.958.084Zm0-1.872a2.067,2.067,0,0,0,1.614-.672,2.551,2.551,0,0,0,.606-1.776,2.546,2.546,0,0,0-.606-1.782,2.076,2.076,0,0,0-1.614-.666,2.1,2.1,0,0,0-1.626.66,2.542,2.542,0,0,0-.606,1.788,2.546,2.546,0,0,0,.606,1.782A2.091,2.091,0,0,0,35.958-1.788ZM49.71,0H47.658L44.226-5.2V0H42.174V-8.424h2.052L47.658-3.2v-5.22H49.71Zm4.308-6.78v1.7h2.748v1.584H54.018v1.848h3.108V0h-5.16V-8.424h5.16V-6.78Z" transform="translate(113 115)" fill="#3bb4a4"/>
          </g>
        </g>
      </g>
    </g>
  </g>
</svg>
