<svg xmlns="http://www.w3.org/2000/svg" width="18" height="16" viewBox="0 0 18 16"><g transform="translate(-8373 2790)"><rect width="18" height="16" transform="translate(8373 -2790)" fill="rgba(255,255,255,0)"/><g transform="translate(7504.188 -3391.144)"><path d="M17.121,6H4.569A1.557,1.557,0,0,0,3.008,7.569L3,16.983a1.564,1.564,0,0,0,1.569,1.569H17.121a1.564,1.564,0,0,0,1.569-1.569V7.569A1.564,1.564,0,0,0,17.121,6Zm0,10.983H4.569V7.569H17.121Zm0-9.414h0Z" transform="translate(866.967 597.868)" fill="#b0bbba"/><ellipse cx="2.979" cy="2.979" rx="2.979" ry="2.979" transform="translate(874.818 607.288)" fill="#b0bbba"/></g></g></svg>