<svg xmlns="http://www.w3.org/2000/svg" width="18" height="16" viewBox="0 0 18 16"><g transform="translate(-8390 2695)"><rect width="18" height="16" transform="translate(8390 -2695)" fill="rgba(255,255,255,0)"/><path d="M4.868,9.811A2.213,2.213,0,1,0,2.655,7.6,2.215,2.215,0,0,0,4.868,9.811ZM14.605,6.27h-6.2a.442.442,0,0,0-.443.443V10.7H1.77V4.943A.442.442,0,0,0,1.328,4.5H.443A.442.442,0,0,0,0,4.943v9.737a.442.442,0,0,0,.443.443h.885a.442.442,0,0,0,.443-.443V13.352H15.933v1.328a.442.442,0,0,0,.443.443h.885a.442.442,0,0,0,.443-.443V9.368A3.1,3.1,0,0,0,14.605,6.27Z" transform="translate(8390 -2694.5)" fill="#b0bbba"/></g></svg>