<svg xmlns="http://www.w3.org/2000/svg" width="18" height="16.208" viewBox="0 0 18 16.208"><g transform="translate(-8390 2731)"><rect width="18" height="16" transform="translate(8390 -2731)" fill="rgba(255,255,255,0)"/><path d="M17.261,12.392H15.048V3.138A1.35,1.35,0,0,0,13.72,1.77h-3.1v1.77h2.655V14.163h3.983a.442.442,0,0,0,.443-.443v-.885A.442.442,0,0,0,17.261,12.392ZM8.637.028,3.326,1.4a.912.912,0,0,0-.671.89v10.1H.443A.442.442,0,0,0,0,12.835v.885a.442.442,0,0,0,.443.443H9.737V.918a.893.893,0,0,0-1.1-.89ZM7.3,7.966c-.367,0-.664-.4-.664-.885s.3-.885.664-.885.664.4.664.885S7.669,7.966,7.3,7.966Z" transform="translate(8390 -2728.955)" fill="#b0bbba"/></g></svg>