<svg xmlns="http://www.w3.org/2000/svg" width="18" height="16" viewBox="0 0 18 16"><g transform="translate(-8373 2790)"><rect width="18" height="16" transform="translate(8373 -2790)" fill="rgba(255,255,255,0)"/><g transform="translate(7505.05 -3225.516)"><path d="M-21291.984-437.322h-9.736a1.331,1.331,0,0,1-1.332-1.326v-7.191a.336.336,0,0,1,.332-.337h11.73a.336.336,0,0,1,.332.337v7.191A1.328,1.328,0,0,1-21291.984-437.322Zm-8.822-6.881h0v3h3v-3h-3Zm9.816-2.854h-11.73a.333.333,0,0,1-.332-.331v-.994a1.333,1.333,0,0,1,1.332-1.331h1.326v-1.438a.333.333,0,0,1,.332-.331h1.105a.333.333,0,0,1,.332.331v1.438h3.539v-1.438a.333.333,0,0,1,.332-.331h1.105a.329.329,0,0,1,.332.331v1.438h1.332a1.331,1.331,0,0,1,1.326,1.331v.994A.333.333,0,0,1-21290.99-447.057Z" transform="translate(22173.805 887.704)" fill="#b0bbba"/></g></g></svg>