<svg xmlns="http://www.w3.org/2000/svg" width="18" height="16" viewBox="0 0 18 16"><g transform="translate(-8373 2790)"><rect width="18" height="16" transform="translate(8373 -2790)" fill="rgba(255,255,255,0)"/><path d="M14.282,7.422A6.86,6.86,0,1,1,7.422.563,6.86,6.86,0,0,1,14.282,7.422ZM6.629,11.055l5.09-5.09a.443.443,0,0,0,0-.626l-.626-.626a.443.443,0,0,0-.626,0L6.316,8.864,4.378,6.926a.443.443,0,0,0-.626,0l-.626.626a.443.443,0,0,0,0,.626L6,11.055a.443.443,0,0,0,.626,0Z" transform="translate(8374.438 -2788.563)" fill="#b0bbba"/></g></svg>