<svg xmlns="http://www.w3.org/2000/svg" width="11.632" height="11.632" viewBox="0 0 11.632 11.632"><path d="M14.1,11.273h0L10.568,7.744,14.1,4.215h0a.364.364,0,0,0,0-.514L12.43,2.034a.364.364,0,0,0-.514,0h0L8.387,5.563,4.858,2.034h0a.364.364,0,0,0-.514,0L2.677,3.7a.364.364,0,0,0,0,.514h0L6.206,7.744,2.677,11.273h0a.364.364,0,0,0,0,.514l1.667,1.667a.364.364,0,0,0,.514,0h0L8.387,9.925l3.529,3.529h0a.364.364,0,0,0,.514,0L14.1,11.787a.364.364,0,0,0,0-.514Z" transform="translate(-2.571 -1.928)" fill="#f86767"/></svg>