<svg xmlns="http://www.w3.org/2000/svg" width="18" height="16" viewBox="0 0 18 16"><g transform="translate(-8373 2790)"><rect width="18" height="16" transform="translate(8373 -2790)" fill="rgba(255,255,255,0)"/><path d="M13.341,9.7l-3-1.287a.644.644,0,0,0-.751.185l-1.33,1.625A9.942,9.942,0,0,1,3.5,5.475l1.625-1.33a.642.642,0,0,0,.185-.751l-1.287-3A.648.648,0,0,0,3.288.017L.5.66a.644.644,0,0,0-.5.627A12.444,12.444,0,0,0,12.445,13.733a.644.644,0,0,0,.628-.5l.644-2.789a.651.651,0,0,0-.376-.74Z" transform="translate(8375.135 -2788.867)" fill="#b0bbba"/></g></svg>