<svg xmlns="http://www.w3.org/2000/svg" width="18" height="16" viewBox="0 0 18 16"><g transform="translate(-8373 2790)"><rect width="18" height="16" transform="translate(8373 -2790)" fill="rgba(255,255,255,0)"/><g transform="translate(7505.053 -3261.681)"><path d="M-21373.969-346.527h-9.734a1.333,1.333,0,0,1-1.332-1.331v-7.192a.334.334,0,0,1,.334-.333h11.727a.334.334,0,0,1,.332.333v7.192A1.331,1.331,0,0,1-21373.969-346.527Zm-3.82-5.045h0v2.995h3v-2.995h-3Zm4.814-4.7h-11.727a.334.334,0,0,1-.334-.333v-.993a1.33,1.33,0,0,1,1.332-1.326h1.326v-1.438a.334.334,0,0,1,.332-.333h1.105a.334.334,0,0,1,.332.333v1.438h3.543v-1.438a.329.329,0,0,1,.332-.333h1.105a.332.332,0,0,1,.328.333v1.438h1.33a1.328,1.328,0,0,1,1.326,1.326v.993A.334.334,0,0,1-21372.975-356.268Z" transform="translate(22255.787 833.075)" fill="#b0bbba"/></g></g></svg>