<svg xmlns="http://www.w3.org/2000/svg" width="52.848" height="18.371" viewBox="0 0 52.848 18.371"><g transform="translate(0 0)"><path d="M43.2,187.549h1.845l-.923-2.349Z" transform="translate(-38.67 -183.019)" fill="#2fabf7"/><path d="M241.549,187.684a1.635,1.635,0,0,0-.671-.084H239.2v1.342h1.678a1.635,1.635,0,0,0,.671-.084.653.653,0,0,0,.252-.587A.466.466,0,0,0,241.549,187.684Z" transform="translate(-214.118 -185.167)" fill="#228fe0"/><path d="M45.382,164.4v1.007l-.5-1.007H40.936v1.007l-.5-1.007H35.064a5.107,5.107,0,0,0-2.349.5v-.5H28.94v.5a2.419,2.419,0,0,0-1.594-.5H13.841l-.923,2.1L12,164.4H7.717v1.007l-.5-1.007H3.607l-1.678,3.943L0,172.7H4.278l.5-1.342H5.956l.5,1.342h4.865V171.7l.419,1.007h2.433L14.6,171.7V172.7h11.66v-2.181h.168c.168,0,.168,0,.168.252v1.845h6.04v-.5a5.025,5.025,0,0,0,2.265.5h2.517l.5-1.342h1.174l.5,1.342h4.865v-1.258l.755,1.258h3.943V164.4Zm-28.353,7.046H15.6v-4.614l-2.013,4.614H12.331l-2.013-4.614v4.614H7.466l-.587-1.258H4.026l-.5,1.342H1.929l2.517-5.956h2.1l2.349,5.62v-5.62h2.265L13,169.6l1.678-4.026h2.349Zm5.7-4.614H19.461v1.091h3.188V169.1H19.461v1.174h3.272v1.258h-4.7v-5.956h4.7Zm6.291,2.433a2.1,2.1,0,0,1,.252,1.091v1.174H27.85v-.755A2,2,0,0,0,27.6,169.6c-.252-.252-.5-.252-1.007-.252h-1.51v2.181H23.656v-5.956h3.188a3.215,3.215,0,0,1,1.678.252,1.429,1.429,0,0,1,.671,1.342,1.67,1.67,0,0,1-1.007,1.594A1.6,1.6,0,0,1,29.024,169.265Zm2.517,2.181H30.115v-5.956h1.426Zm16.525,0H46.053L43.369,167v4.446H40.517l-.5-1.258H37.077l-.5,1.342H34.98a2.522,2.522,0,0,1-2.768-2.936,3.438,3.438,0,0,1,.755-2.349,2.644,2.644,0,0,1,2.1-.671h1.342v1.258H35.064a1.547,1.547,0,0,0-1.091.336,1.97,1.97,0,0,0-.419,1.342,1.825,1.825,0,0,0,.419,1.426,1.337,1.337,0,0,0,1.007.336h.587l1.929-4.614h2.1l2.349,5.62v-5.62h2.1l2.433,4.11v-4.11H47.9v5.788Z" transform="translate(0 -164.4)" fill="#0571c1"/><g transform="translate(21.139 2.181)"><path d="M358.4,187.549h1.929l-.923-2.349Z" transform="translate(-341.958 -185.2)" fill="#228fe0"/><path d="M203.781,281.981V277.2l-2.181,2.349Z" transform="translate(-201.6 -267.553)" fill="#228fe0"/></g><path d="M136.8,282.8v1.091h3.1v1.174h-3.1v1.258h3.439l1.594-1.762-1.51-1.762Z" transform="translate(-122.456 -270.385)" fill="#2fabf7"/><path d="M237.762,282.8H236v1.51h1.845c.5,0,.839-.252.839-.755A.846.846,0,0,0,237.762,282.8Z" transform="translate(-211.254 -270.385)" fill="#228fe0"/><path d="M151.968,264.175V260.4h-3.523a2.752,2.752,0,0,0-1.762.5v-.5h-3.859a2.662,2.662,0,0,0-1.678.5v-.5h-6.795v.5a3.243,3.243,0,0,0-1.846-.5h-4.53v.5a3.183,3.183,0,0,0-1.929-.5h-5.033l-1.174,1.258L118.75,260.4H111.2v8.221h7.382l1.174-1.258,1.091,1.258h4.53v-1.929h.587a5.1,5.1,0,0,0,1.929-.252V268.7h3.775v-2.181h.168c.252,0,.252,0,.252.252V268.7H143.5a3.289,3.289,0,0,0,1.929-.5v.5h3.607a3.768,3.768,0,0,0,2.013-.419h0a2.856,2.856,0,0,0,1.342-2.517A3.212,3.212,0,0,0,151.968,264.175Zm-26,1.342h-1.678v2.013H121.6l-1.678-1.929-1.762,1.929h-5.536v-5.956h5.62l1.678,1.929,1.762-1.929h4.446c1.091,0,2.349.336,2.349,1.929C128.4,265.181,127.222,265.517,125.964,265.517Zm8.389-.336a1.9,1.9,0,0,1,.252,1.091v1.174h-1.426v-.755a1.873,1.873,0,0,0-.252-1.174c-.168-.252-.5-.252-1.007-.252h-1.51v2.181h-1.426v-5.956h3.188a3.377,3.377,0,0,1,1.678.252,1.484,1.484,0,0,1,.755,1.342,1.67,1.67,0,0,1-1.007,1.594A1.435,1.435,0,0,1,134.352,265.181Zm5.788-2.433h-3.272v1.091h3.188v1.174h-3.188v1.174h3.272v1.258h-4.7v-5.956h4.7Zm3.523,4.7h-2.684v-1.258h2.684a.708.708,0,0,0,.587-.168.608.608,0,0,0,0-.839.709.709,0,0,0-.5-.168c-1.342-.084-2.936,0-2.936-1.845,0-.839.5-1.762,2.013-1.762h2.768v1.426h-2.6a1.244,1.244,0,0,0-.587.084c-.168.084-.168.252-.168.419,0,.252.168.336.336.419a1.064,1.064,0,0,0,.5.084h.755a2.136,2.136,0,0,1,1.594.5,1.736,1.736,0,0,1,.419,1.258C145.845,266.859,145.09,267.446,143.664,267.446Zm7.214-.587a2.446,2.446,0,0,1-1.762.587h-2.684v-1.258h2.684a.708.708,0,0,0,.587-.168.608.608,0,0,0,0-.839.709.709,0,0,0-.5-.168c-1.342-.084-2.936,0-2.936-1.845,0-.839.5-1.762,2.013-1.762h2.768v1.426h-2.517a1.244,1.244,0,0,0-.587.084c-.168.084-.168.252-.168.419,0,.252.084.336.336.419a1.064,1.064,0,0,0,.5.084h.755a2.136,2.136,0,0,1,1.594.5.082.082,0,0,1,.084.084,1.926,1.926,0,0,1,.336,1.174A1.707,1.707,0,0,1,150.878,266.859Z" transform="translate(-99.54 -250.334)" fill="#0571c1"/><path d="M297.549,283.684a1.636,1.636,0,0,0-.671-.084H295.2v1.342h1.678a1.636,1.636,0,0,0,.671-.084.653.653,0,0,0,.252-.587A.466.466,0,0,0,297.549,283.684Z" transform="translate(-264.246 -271.101)" fill="#228fe0"/><g transform="translate(21.139 2.181)"><path d="M241.549,187.684a1.635,1.635,0,0,0-.671-.084H239.2v1.342h1.678a1.635,1.635,0,0,0,.671-.084.653.653,0,0,0,.252-.587A.466.466,0,0,0,241.549,187.684Z" transform="translate(-235.257 -187.348)" fill="#228fe0"/><path d="M358.4,187.549h1.929l-.923-2.349Z" transform="translate(-341.958 -185.2)" fill="#228fe0"/><path d="M203.781,281.981V277.2l-2.181,2.349Z" transform="translate(-201.6 -267.553)" fill="#228fe0"/></g><g transform="translate(24.746 12.415)"><path d="M237.762,282.8H236v1.51h1.845c.5,0,.839-.252.839-.755A.846.846,0,0,0,237.762,282.8Z" transform="translate(-236 -282.8)" fill="#228fe0"/></g><g transform="translate(30.954 12.499)"><path d="M297.549,283.684a1.636,1.636,0,0,0-.671-.084H295.2v1.342h1.678a1.636,1.636,0,0,0,.671-.084.653.653,0,0,0,.252-.587A.466.466,0,0,0,297.549,283.684Z" transform="translate(-295.2 -283.6)" fill="#228fe0"/></g><g transform="translate(0 0)"><path d="M125.46,267.279l-1.174-1.258v1.426h-2.768l-1.678-1.929-1.845,1.929h-5.536v-5.872h5.62l1.762,1.929.839-1.007-2.1-2.1H111.2v8.221h7.382l1.258-1.258,1.09,1.258h4.53Z" transform="translate(-99.54 -250.334)" fill="#2fabf7"/><path d="M17.2,172.621l-1.091-1.174h-.5v-.5l-1.258-1.258-.839,1.762H12.331l-2.013-4.614v4.614H7.466l-.587-1.258H4.026l-.587,1.258H1.929l2.517-5.872h2.1l2.349,5.62v-5.62H10.15L8.976,164.4H7.717v1.007L7.3,164.4H3.607l-1.678,3.943L0,172.621H4.362l.5-1.258H6.04l.587,1.258h4.7v-1.007l.419,1.007h2.433l.419-1.007v1.007Z" transform="translate(0 -164.4)" fill="#2fabf7"/><path d="M115.742,194.542,114.4,193.2l1.007,2.181Z" transform="translate(-102.404 -190.18)" fill="#2fabf7"/></g><g transform="translate(8.305 0.084)"><path d="M207.619,266.053a3.068,3.068,0,0,0,1.342-2.265l-1.174-1.174a2.482,2.482,0,0,1,.168.839,1.707,1.707,0,0,1-.5,1.258,2.446,2.446,0,0,1-1.762.587H203V264.04h2.684a.708.708,0,0,0,.587-.168.608.608,0,0,0,0-.839.709.709,0,0,0-.5-.168c-1.342-.084-2.936,0-2.936-1.845,0-.839.5-1.594,1.762-1.762l-.923-.923c-.168.084-.252.168-.336.168V258h-3.859a2.662,2.662,0,0,0-1.678.5V258h-6.879v.5a3.243,3.243,0,0,0-1.845-.5h-4.53v.5a3.183,3.183,0,0,0-1.929-.5h-5.033l-1.174,1.258L175.323,258H174.4l2.517,2.517,1.258-1.342h4.446c1.091,0,2.349.336,2.349,1.929,0,1.678-1.174,2.013-2.433,2.013h-1.678v1.258l1.258,1.258v-1.258h.419a5.1,5.1,0,0,0,1.929-.252v2.265h3.775v-2.181h.168c.252,0,.252,0,.252.252v1.929h11.408a3.289,3.289,0,0,0,1.929-.5v.5h3.607a3.328,3.328,0,0,0,2.013-.336Zm-16.693-3.02a1.9,1.9,0,0,1,.252,1.09V265.3h-1.426v-.755a1.873,1.873,0,0,0-.252-1.174c-.168-.252-.5-.252-1.007-.252h-1.51V265.3h-1.426v-5.956h3.188a3.377,3.377,0,0,1,1.678.252,1.484,1.484,0,0,1,.755,1.342,1.67,1.67,0,0,1-1.007,1.594A1.435,1.435,0,0,1,190.925,263.033Zm5.788-2.433h-3.272v1.09h3.188v1.174h-3.188v1.174h3.272V265.3h-4.7v-5.956h4.7Zm3.523,4.7h-2.684V264.04h2.684a.708.708,0,0,0,.587-.168.608.608,0,0,0,0-.839.709.709,0,0,0-.5-.168c-1.342-.084-2.936,0-2.936-1.845,0-.839.5-1.762,2.013-1.762h2.768v1.426h-2.6a1.244,1.244,0,0,0-.587.084c-.168.084-.168.252-.168.419,0,.252.168.336.336.419a1.064,1.064,0,0,0,.5.084h.755a2.136,2.136,0,0,1,1.594.5,1.736,1.736,0,0,1,.419,1.258C202.418,264.711,201.663,265.3,200.237,265.3Z" transform="translate(-164.418 -248.269)" fill="#228fe0"/><path d="M459.2,284.1c0,.252.084.336.336.419a1.064,1.064,0,0,0,.5.084h.755a2.436,2.436,0,0,1,1.174.252L460.71,283.6h-.755a1.244,1.244,0,0,0-.587.084A.641.641,0,0,0,459.2,284.1Z" transform="translate(-419.354 -271.185)" fill="#228fe0"/><path d="M431.2,240.4l.168.252h.084Z" transform="translate(-394.29 -232.515)" fill="#228fe0"/><path d="M387.2,196.4l1.426,3.439v-2.013Z" transform="translate(-354.904 -193.128)" fill="#228fe0"/><path d="M97.151,171.24h.168c.168,0,.168,0,.168.252v1.845h6.04v-.5a5.025,5.025,0,0,0,2.265.5h2.517l.5-1.342h1.174l.5,1.342h4.865V172.5l-1.174-1.174v.923h-2.852l-.419-1.342h-2.936l-.5,1.342h-1.594a2.522,2.522,0,0,1-2.768-2.936,3.438,3.438,0,0,1,.755-2.349,2.644,2.644,0,0,1,2.1-.671H107.3v1.258h-1.342a1.547,1.547,0,0,0-1.091.336,1.97,1.97,0,0,0-.419,1.342,1.825,1.825,0,0,0,.419,1.426,1.337,1.337,0,0,0,1.007.336h.587l1.929-4.614h.839l-1.174-1.174h-2.181a5.107,5.107,0,0,0-2.349.5v-.5H99.836v.5a2.419,2.419,0,0,0-1.594-.5H84.736l-.923,2.1-.923-2.1H79.2l1.174,1.174h1.678l1.426,3.1.5.5,1.51-3.691H87.84v5.956H86.414v-4.614l-1.426,3.355,2.433,2.433h9.647Zm3.859-4.949h1.426v5.956H101.01Zm-7.382,1.258H90.357v1.091h3.188v1.174H90.357v1.174h3.272v1.258h-4.7v-5.956h4.7Zm2.349,4.614H94.551v-5.956h3.188a3.215,3.215,0,0,1,1.678.252,1.429,1.429,0,0,1,.671,1.342,1.67,1.67,0,0,1-1.007,1.594,1.1,1.1,0,0,1,.671.5,2.1,2.1,0,0,1,.252,1.091v1.174H98.577v-.755a2,2,0,0,0-.252-1.174c-.084-.168-.336-.168-.839-.168h-1.51v2.1Z" transform="translate(-79.2 -165.2)" fill="#228fe0"/></g></g></svg>