<svg xmlns="http://www.w3.org/2000/svg" width="52.848" height="16.022" viewBox="0 0 52.848 16.022"><g transform="translate(0 0)"><path d="M184.8,195.5l2.684-15.1h4.194l-2.6,15.1Z" transform="translate(-165.422 -179.897)" fill="#3c58bf"/><path d="M184.8,195.5l3.439-15.1h3.439l-2.6,15.1Z" transform="translate(-165.422 -179.897)" fill="#293688"/><path d="M260.834,176.271a10.64,10.64,0,0,0-3.859-.671c-4.194,0-7.214,2.1-7.214,5.117,0,2.265,2.1,3.439,3.775,4.194s2.181,1.258,2.181,1.929c0,1.007-1.342,1.51-2.517,1.51a9.117,9.117,0,0,1-4.027-.839l-.587-.252L248,190.7a13.6,13.6,0,0,0,4.781.839c4.446,0,7.382-2.1,7.382-5.285,0-1.762-1.091-3.1-3.607-4.194-1.51-.755-2.433-1.174-2.433-1.929,0-.671.755-1.342,2.433-1.342a7.694,7.694,0,0,1,3.188.587l.419.168.671-3.272Z" transform="translate(-221.995 -175.6)" fill="#3c58bf"/><path d="M260.834,176.271a10.64,10.64,0,0,0-3.859-.671c-4.194,0-6.459,2.1-6.459,5.117,0,2.265,1.342,3.439,3.02,4.194s2.181,1.258,2.181,1.929c0,1.007-1.342,1.51-2.517,1.51a9.117,9.117,0,0,1-4.027-.839l-.587-.252L248,190.7a13.6,13.6,0,0,0,4.781.839c4.446,0,7.382-2.1,7.382-5.285,0-1.762-1.091-3.1-3.607-4.194-1.51-.755-2.433-1.174-2.433-1.929,0-.671.755-1.342,2.433-1.342a7.694,7.694,0,0,1,3.188.587l.419.168.671-3.272Z" transform="translate(-221.995 -175.6)" fill="#293688"/><path d="M366.872,180.4c-1.007,0-1.762.084-2.181,1.09L358.4,195.5h4.53l.839-2.517h5.369l.5,2.517h4.026l-3.523-15.1Zm-1.929,10.066c.252-.755,1.678-4.446,1.678-4.446s.336-.923.587-1.51l.252,1.426s.839,3.775,1.007,4.614h-3.523Z" transform="translate(-320.819 -179.897)" fill="#3c58bf"/><path d="M367.879,180.4c-1.007,0-1.762.084-2.181,1.09L358.4,195.5h4.53l.839-2.517h5.369l.5,2.517h4.026l-3.523-15.1Zm-2.936,10.066c.336-.839,1.678-4.446,1.678-4.446s.336-.923.587-1.51l.252,1.426s.839,3.775,1.007,4.614h-3.523Z" transform="translate(-320.819 -179.897)" fill="#293688"/><path d="M57.491,191.686l-.419-2.181a12.16,12.16,0,0,0-5.872-6.627L54.975,196.3H59.5L66.3,181.2H61.77Z" transform="translate(-45.831 -180.613)" fill="#3c58bf"/><path d="M57.491,191.686l-.419-2.181a12.16,12.16,0,0,0-5.872-6.627L54.975,196.3H59.5L66.3,181.2H62.608Z" transform="translate(-45.831 -180.613)" fill="#293688"/><path d="M0,180.4l.755.168c5.369,1.258,9.06,4.446,10.486,8.221l-1.51-7.13C9.479,180.652,8.724,180.4,7.8,180.4Z" transform="translate(0 -179.897)" fill="#ffbc00"/><path d="M0,180.4H0c5.369,1.258,9.815,4.53,11.241,8.3l-1.426-5.956A2.048,2.048,0,0,0,7.8,181.155Z" transform="translate(0 -179.897)" fill="#f7981d"/><path d="M0,180.4H0c5.369,1.258,9.815,4.53,11.241,8.3l-1.007-3.272A2.958,2.958,0,0,0,8.472,183Z" transform="translate(0 -179.897)" fill="#ed7c00"/><g transform="translate(5.453 2.181)"><path d="M62.4,204.789l-2.852-2.852-1.342,3.188-.336-2.1A12.16,12.16,0,0,0,52,196.4l3.775,13.422H60.3Z" transform="translate(-52 -196.4)" fill="#051244"/><path d="M189.078,292.891l-3.607-3.691-.671,3.691Z" transform="translate(-170.875 -279.469)" fill="#051244"/><path d="M255.3,274.8h0c.336.336.5.587.419.923,0,1.007-1.342,1.51-2.517,1.51a9.118,9.118,0,0,1-4.026-.839l-.587-.252L248,279.581a13.6,13.6,0,0,0,4.781.839c2.684,0,4.865-.755,6.124-2.1Z" transform="translate(-227.448 -266.579)" fill="#051244"/><path d="M364,230.589h3.943l.839-2.517h5.369l.5,2.517h4.026l-1.426-6.124-5.033-4.865.252,1.342s.839,3.775,1.007,4.614h-3.523c.336-.839,1.678-4.446,1.678-4.446s.336-.923.587-1.51" transform="translate(-331.285 -217.167)" fill="#051244"/></g></g></svg>