<svg xmlns="http://www.w3.org/2000/svg" width="18" height="16" viewBox="0 0 18 16"><g transform="translate(-8373 2790)"><rect width="18" height="16" transform="translate(8373 -2790)" fill="rgba(255,255,255,0)"/><g transform="translate(7504.804 -3261.464)"><path d="M-21332.738-401.375h-9.738a1.33,1.33,0,0,1-1.328-1.328v-7.189a.333.333,0,0,1,.332-.332h11.73a.337.337,0,0,1,.332.332v7.189A1.33,1.33,0,0,1-21332.738-401.375Zm-9.068-6.043h0v3h8.5v-3h-8.5Zm10.064-3.7h-11.73a.333.333,0,0,1-.332-.332v-.991a1.33,1.33,0,0,1,1.328-1.328h1.328v-1.441a.333.333,0,0,1,.332-.332h1.1a.329.329,0,0,1,.332.332v1.441h3.541v-1.441a.333.333,0,0,1,.332-.332h1.109a.333.333,0,0,1,.332.332v1.441h1.328a1.33,1.33,0,0,1,1.328,1.328v.991A.333.333,0,0,1-21331.742-411.113Z" transform="translate(22214.805 887.919)" fill="#b0bbba"/></g></g></svg>