<svg xmlns="http://www.w3.org/2000/svg" width="30.596" height="18.924" viewBox="0 0 30.596 18.924"><rect width="8.28" height="14.876" transform="translate(11.146 2.024)" fill="#ff5a00"/><path d="M11.7,9.462a9.489,9.489,0,0,1,3.6-7.438,9.459,9.459,0,1,0-5.836,16.9A9.411,9.411,0,0,0,15.3,16.9,9.443,9.443,0,0,1,11.7,9.462Z" fill="#eb001b"/><path d="M514.9,9.462A9.453,9.453,0,0,1,499.6,16.9a9.482,9.482,0,0,0,0-14.876,9.453,9.453,0,0,1,15.3,7.438Z" transform="translate(-484.302 0)" fill="#f79e1b"/></svg>