<svg width="96" height="64" viewBox="0 0 96 64" fill="none" xmlns="http://www.w3.org/2000/svg">
<path fill-rule="evenodd" clip-rule="evenodd" d="M16 4C16 1.79086 17.7909 0 20 0H92C94.2091 0 96 1.79086 96 4V44C96 46.2091 94.2091 48 92 48H20C17.7909 48 16 46.2091 16 44V4ZM92 4H20V44H92V4Z" fill="#178C7E"/>
<path d="M12 48H4C1.79086 48 0 49.7909 0 52V60C0 62.2091 1.79086 64 4 64H12C14.2091 64 16 62.2091 16 60V52C16 49.7909 14.2091 48 12 48Z" fill="#198E80"/>
<path d="M42.7142 8.86124L46.1148 28.1121L42.2536 28.7942L40.8067 20.6029L32.5602 22.0596L34.0072 30.2509L30.146 30.933L26.7454 11.6821L30.6066 11L32.0048 18.9155L40.2512 17.4588L38.853 9.54332L42.7142 8.86124ZM56.7533 26.4888C55.371 26.7547 53.9434 26.6591 52.6089 26.2112C51.3265 25.7749 50.1942 24.9838 49.3435 23.9298C48.4302 22.7834 47.8313 21.4189 47.606 19.9706C47.321 18.5294 47.4257 17.0381 47.9095 15.6509C48.3671 14.3633 49.1769 13.2299 50.2468 12.3797C51.3582 11.5018 52.675 10.9217 54.0729 10.6942C55.4642 10.429 56.9001 10.5229 58.245 10.9669C59.5414 11.3991 60.6905 12.1864 61.5616 13.2393C62.4913 14.3768 63.1006 15.7419 63.3266 17.1936C63.6121 18.6383 63.4977 20.1336 62.9956 21.5181C62.5204 22.8089 61.6979 23.9433 60.6189 24.7963C59.4938 25.6775 58.164 26.2597 56.7533 26.4888V26.4888ZM56.159 23.124C56.8489 23.004 57.4963 22.7085 58.0388 22.2658C58.6075 21.7992 59.0272 21.1764 59.2459 20.4741C59.4983 19.6371 59.5372 18.7503 59.3591 17.8944C59.2918 17.2812 59.1038 16.6874 58.8058 16.1473C58.5078 15.6072 58.1058 15.1315 57.6229 14.7476C57.1963 14.4321 56.7086 14.2089 56.191 14.0923C55.6734 13.9756 55.1372 13.968 54.6165 14.07C54.0959 14.1502 53.5982 14.3398 53.1561 14.6262C52.7141 14.9127 52.3377 15.2894 52.0517 15.7318C51.4161 16.7988 51.2247 18.0727 51.5185 19.2795C51.6529 20.5084 52.2548 21.6386 53.1995 22.436C53.6142 22.757 54.0933 22.9846 54.6041 23.1033C55.1148 23.222 55.6452 23.2291 56.159 23.124V23.124ZM73.4077 23.5468C72.254 23.7702 71.0657 23.7425 69.9236 23.4654C68.9235 23.2275 68.0008 22.7381 67.2428 22.0436C66.5457 21.4046 66.0566 20.571 65.8389 19.6507L69.7257 18.9641C69.813 19.2482 69.9582 19.5111 70.1522 19.7363C70.3462 19.9614 70.5847 20.144 70.8527 20.2724C71.4703 20.5751 72.1716 20.6615 72.8442 20.5178C73.4568 20.4456 74.0319 20.1851 74.49 19.7721C74.6592 19.6177 74.7865 19.4229 74.8601 19.206C74.9337 18.9891 74.9511 18.7571 74.9108 18.5317C74.8696 18.2904 74.7562 18.0673 74.5856 17.8918C74.4149 17.7163 74.1951 17.5966 73.9551 17.5486C73.116 17.3436 72.2602 17.214 71.3981 17.1613C70.4079 17.1116 69.4226 16.991 68.4496 16.8005C67.6745 16.6347 66.9506 16.2845 66.3394 15.7797C65.6624 15.1835 65.2277 14.3596 65.1178 13.4643C64.9662 12.6354 65.0787 11.7799 65.4394 11.0184C65.8419 10.1897 66.4663 9.48867 67.2432 8.99338C68.1847 8.38848 69.2429 7.98837 70.3491 7.81903C71.9039 7.46044 73.5357 7.67172 74.9479 8.41446C75.5672 8.77407 76.1045 9.25923 76.5253 9.83878C76.946 10.4183 77.2409 11.0795 77.391 11.7797L73.6913 12.4333C73.6243 12.1552 73.4993 11.8944 73.3245 11.668C73.1498 11.4415 72.9291 11.2546 72.6771 11.1193C72.0871 10.8304 71.4158 10.7532 70.7756 10.9006C70.2053 10.9659 69.6674 11.1996 69.2304 11.5717C69.0715 11.7185 68.9534 11.9039 68.8876 12.1099C68.8218 12.316 68.8106 12.5356 68.855 12.7472C68.8976 12.9973 69.0133 13.2292 69.1876 13.4136C69.3619 13.5979 69.587 13.7265 69.8343 13.783C70.6659 14.0023 71.5184 14.133 72.3775 14.1727C73.3455 14.2292 74.3084 14.3537 75.2589 14.5454C76.0337 14.7161 76.7554 15.0725 77.3621 15.5837C78.035 16.1786 78.4759 16.9922 78.6069 17.8808C78.7674 18.7265 78.6583 19.6013 78.295 20.3818C77.8935 21.2079 77.2674 21.9043 76.4885 22.3911C75.5519 22.9839 74.5032 23.3774 73.4077 23.5468V23.5468Z" fill="#0D8375"/>
<path d="M63.0274 28.2453L63.5174 31.0191L60.5506 31.5432L62.0317 39.9275L58.533 40.5455L57.0519 32.1612L54.1205 32.679L53.6305 29.9053L63.0274 28.2453ZM67.696 39.0569C67.1675 39.1763 66.6134 39.0929 66.1433 38.8233C65.9395 38.7032 65.7648 38.5394 65.6319 38.3437C65.499 38.148 65.4111 37.9252 65.3746 37.6915C65.3273 37.4559 65.3323 37.2129 65.3894 36.9795C65.4465 36.7462 65.5542 36.5282 65.7049 36.3411C66.0527 35.925 66.5454 35.6565 67.0835 35.5897C67.6073 35.4707 68.1567 35.5552 68.6205 35.8261C68.8261 35.9502 69.002 36.1181 69.1356 36.3178C69.2691 36.5174 69.3572 36.7441 69.3934 36.9815C69.4392 37.2137 69.4329 37.453 69.3751 37.6824C69.3173 37.9119 69.2093 38.1256 69.0589 38.3083C68.7147 38.72 68.2282 38.9872 67.696 39.0569V39.0569ZM80.2334 25.2059L78.4536 37.0266L73.9305 37.8256L68.2085 27.3301L71.9279 26.673L75.5847 33.9417L76.514 25.8629L80.2334 25.2059ZM84.7483 36.0446C84.2198 36.164 83.6657 36.0807 83.1957 35.811C82.9918 35.6909 82.8172 35.5271 82.6842 35.3314C82.5513 35.1357 82.4634 34.9129 82.4269 34.6792C82.3796 34.4436 82.3847 34.2006 82.4417 33.9672C82.4988 33.7339 82.6065 33.5159 82.7572 33.3288C83.105 32.9127 83.5977 32.6442 84.1359 32.5774C84.6596 32.4584 85.209 32.5429 85.6728 32.8138C85.8785 32.9379 86.0543 33.1058 86.1879 33.3055C86.3214 33.5052 86.4095 33.7318 86.4457 33.9693C86.4922 34.2019 86.4864 34.442 86.4287 34.6722C86.3709 34.9023 86.2628 35.1167 86.112 35.2999C85.7669 35.7103 85.2802 35.9761 84.7483 36.0446V36.0446Z" fill="#0D8375"/>
</svg>
